<?xml version="1.0" encoding="UTF-8" standalone="no"?>
<svg
   width="48"
   height="48"
   viewBox="0 0 48 48"
   version="1.1"
   id="svg874"
   sodipodi:docname="nwg-look.svg"
   inkscape:version="1.1.2 (0a00cf5339, 2022-02-04, custom)"
   xmlns:inkscape="http://www.inkscape.org/namespaces/inkscape"
   xmlns:sodipodi="http://sodipodi.sourceforge.net/DTD/sodipodi-0.dtd"
   xmlns="http://www.w3.org/2000/svg"
   xmlns:svg="http://www.w3.org/2000/svg">
  <defs
     id="defs878" />
  <sodipodi:namedview
     id="namedview876"
     pagecolor="#ffffff"
     bordercolor="#666666"
     borderopacity="1.0"
     inkscape:pageshadow="2"
     inkscape:pageopacity="0.0"
     inkscape:pagecheckerboard="0"
     showgrid="false"
     showguides="true"
     inkscape:guide-bbox="true"
     inkscape:snap-nodes="true"
     inkscape:snap-global="false"
     inkscape:zoom="10.694462"
     inkscape:cx="50.727189"
     inkscape:cy="26.322035"
     inkscape:window-width="1918"
     inkscape:window-height="1042"
     inkscape:window-x="0"
     inkscape:window-y="0"
     inkscape:window-maximized="1"
     inkscape:current-layer="svg874">
    <sodipodi:guide
       position="48,20.720677"
       orientation="-1,0"
       id="guide1040"
       inkscape:label=""
       inkscape:locked="false"
       inkscape:color="rgb(0,0,255)" />
    <sodipodi:guide
       position="-26.350665,48"
       orientation="0,1"
       id="guide1042"
       inkscape:label=""
       inkscape:locked="false"
       inkscape:color="rgb(0,0,255)" />
    <sodipodi:guide
       position="-19.501814,0"
       orientation="0,1"
       id="guide1044"
       inkscape:label=""
       inkscape:locked="false"
       inkscape:color="rgb(0,0,255)" />
    <sodipodi:guide
       position="0,20.372431"
       orientation="-1,0"
       id="guide1048"
       inkscape:label=""
       inkscape:locked="false"
       inkscape:color="rgb(0,0,255)" />
  </sodipodi:namedview>
  <path
     id="rect23507"
     style="fill:#00aad4;fill-opacity:1;stroke-width:0.357811"
     d="M 1 1 L 1 40.212891 L 34.162109 40.212891 L 31.458984 37.509766 L 3.7480469 37.509766 L 3.7480469 8.3203125 L 44.068359 8.3203125 L 44.068359 37.005859 L 47 39.9375 L 47 1 L 1 1 z M 42.605469 2.7753906 A 1.7811862 1.7811862 0 0 1 44.386719 4.5566406 A 1.7811862 1.7811862 0 0 1 42.605469 6.3378906 A 1.7811862 1.7811862 0 0 1 40.824219 4.5566406 A 1.7811862 1.7811862 0 0 1 42.605469 2.7753906 z " />
  <path
     style="fill:#00aad4;fill-opacity:1;stroke-width:1.17305"
     d="m 24.167085,18.683576 4.42359,4.423563 c 0.47978,2.215886 -2.733219,5.466398 -4.976098,4.976066 l -4.423588,-4.422387 c -0.201766,0.685058 -0.302647,1.393577 -0.302647,2.102099 0,1.879222 0.712045,3.756099 2.14669,5.191909 1.584797,1.584785 3.711545,2.296825 5.784331,2.136116 1.09446,-0.08446 2.172498,0.315551 2.949058,1.092109 l 11.334053,11.333981 c 0.678024,0.678023 1.568374,1.018204 2.459894,1.018204 1.948446,0 3.520335,-1.600034 3.47928,-3.554334 -0.01877,-0.864534 -0.358954,-1.724376 -1.018211,-2.384802 L 34.689385,29.260944 c -0.776563,-0.775384 -1.175398,-1.854588 -1.092116,-2.94904 0.160714,-2.072774 -0.552507,-4.199511 -2.134955,-5.783122 -1.436992,-1.43581 -3.31388,-2.146677 -5.194287,-2.146677 -0.707352,0 -1.415875,0.10089 -2.100942,0.301471 z"
     id="path872" />
</svg>
