<?xml version="1.0" encoding="UTF-8" standalone="no"?>
<!-- Created with Inkscape (http://www.inkscape.org/) -->

<svg
   width="48"
   height="48"
   viewBox="0 0 12.7 12.7"
   version="1.1"
   id="svg8"
   inkscape:version="1.1.2 (0a00cf5339, 2022-02-04, custom)"
   sodipodi:docname="nwg-look.svg"
   xmlns:inkscape="http://www.inkscape.org/namespaces/inkscape"
   xmlns:sodipodi="http://sodipodi.sourceforge.net/DTD/sodipodi-0.dtd"
   xmlns="http://www.w3.org/2000/svg"
   xmlns:svg="http://www.w3.org/2000/svg"
   xmlns:rdf="http://www.w3.org/1999/02/22-rdf-syntax-ns#"
   xmlns:cc="http://creativecommons.org/ns#"
   xmlns:dc="http://purl.org/dc/elements/1.1/">
  <defs
     id="defs2" />
  <sodipodi:namedview
     id="base"
     pagecolor="#ffffff"
     bordercolor="#666666"
     borderopacity="1.0"
     inkscape:pageopacity="0.0"
     inkscape:pageshadow="2"
     inkscape:zoom="13.248405"
     inkscape:cx="30.041353"
     inkscape:cy="24.267073"
     inkscape:document-units="px"
     inkscape:current-layer="layer1"
     showgrid="false"
     units="px"
     inkscape:window-width="1920"
     inkscape:window-height="1020"
     inkscape:window-x="0"
     inkscape:window-y="0"
     inkscape:window-maximized="1"
     inkscape:pagecheckerboard="0"
     width="48px"
     showguides="true"
     inkscape:guide-bbox="true"
     inkscape:snap-global="false" />
  <metadata
     id="metadata5">
    <rdf:RDF>
      <cc:Work
         rdf:about="">
        <dc:format>image/svg+xml</dc:format>
        <dc:type
           rdf:resource="http://purl.org/dc/dcmitype/StillImage" />
      </cc:Work>
    </rdf:RDF>
  </metadata>
  <g
     inkscape:label="Layer 1"
     inkscape:groupmode="layer"
     id="layer1"
     transform="translate(0,-280.06665)">
    <path
       id="rect31691"
       style="color:#000000;fill:#00aad4;fill-opacity:1;stroke-width:1.1661;stroke-linecap:round;-inkscape-stroke:none"
       d="m 1.4973705,281.12499 c -0.52952845,0.007 -0.96820383,0.47318 -0.96820383,1.03525 v 7.70517 c 0,0.56651 0.44719909,0.99956 0.98092063,1.03815 H 9.6984906 L 8.7961825,289.94923 H 1.5100873 c -0.052307,0 -0.082081,-0.029 -0.082081,-0.0843 v -6.39476 h 9.2462007 v 4.49766 l 0.898262,0.95143 v -6.75892 c 0,-0.56649 -0.445228,-1.03526 -0.980343,-1.03526 H 1.5100873 c -0.00418,0 -0.00856,-6e-5 -0.012716,0 z m 8.8086315,0.67977 a 0.44897891,0.44897891 0 0 1 0.449131,0.44913 0.44897891,0.44897891 0 0 1 -0.449131,0.44913 0.44897891,0.44897891 0 0 1 -0.4485527,-0.44913 0.44897891,0.44897891 0 0 1 0.4485527,-0.44913 z" />
    <path
       id="path29945"
       style="fill:#00aad4;fill-opacity:1;stroke-width:0.143276"
       d="m 9.2919054,286.33681 v 5.1e-4 c -0.5138316,0.0367 -0.9968892,0.298 -1.3742734,0.69746 -0.3801418,0.40109 -0.6512074,0.94323 -0.7361277,1.52852 -0.00563,0.0366 0.014869,0.0757 0.051252,0.0879 0.1015303,0.0323 0.65046,0.21189 1.1290645,0.3683 l 0.5321225,0.17386 c 0.031988,0.0111 0.051136,0.0181 0.076878,0.0272 l 0.9843525,-1.06375 -0.1075311,-0.32512 -0.219582,-0.65471 -0.2607853,-0.78136 c -0.00969,-0.0367 -0.040555,-0.0604 -0.075373,-0.0589 z m 0.7366306,2.01543 -0.8848614,0.9557 2.6103654,2.76414 c 0.0696,0.0737 0.18423,0.0753 0.255257,0 l 0.638648,-0.67634 c 0.06959,-0.0737 0.06959,-0.19659 0,-0.27034 z" />
  </g>
  <style
     type="text/css"
     id="style29943"><![CDATA[
	.st0{fill-rule:evenodd;clip-rule:evenodd;}
]]></style>
</svg>
